<mxfile host="app.diagrams.net" modified="2024-04-13T08:55:13.258Z" agent="Mozilla/5.0 (Windows NT 10.0; Win64; x64) AppleWebKit/537.36 (KHTML, like Gecko) Chrome/123.0.0.0 Safari/537.36" etag="empIMwCJAWkuhurUg4oa" version="24.2.3" type="device">
  <diagram name="StrÃ¡nka-1" id="cByRDnhlZCf4clczOmZQ">
    <mxGraphModel dx="1674" dy="772" grid="1" gridSize="10" guides="1" tooltips="1" connect="1" arrows="1" fold="1" page="1" pageScale="1" pageWidth="850" pageHeight="1100" math="0" shadow="0">
      <root>
        <mxCell id="0" />
        <mxCell id="1" parent="0" />
        <mxCell id="JPIbogad7ncxx7DGBU5N-6" style="edgeStyle=orthogonalEdgeStyle;rounded=0;orthogonalLoop=1;jettySize=auto;html=1;entryX=0.5;entryY=1;entryDx=0;entryDy=0;" edge="1" parent="1" source="JPIbogad7ncxx7DGBU5N-1" target="JPIbogad7ncxx7DGBU5N-2">
          <mxGeometry relative="1" as="geometry" />
        </mxCell>
        <mxCell id="JPIbogad7ncxx7DGBU5N-7" style="edgeStyle=orthogonalEdgeStyle;rounded=0;orthogonalLoop=1;jettySize=auto;html=1;entryX=0;entryY=0.5;entryDx=0;entryDy=0;" edge="1" parent="1" source="JPIbogad7ncxx7DGBU5N-1" target="JPIbogad7ncxx7DGBU5N-4">
          <mxGeometry relative="1" as="geometry" />
        </mxCell>
        <mxCell id="JPIbogad7ncxx7DGBU5N-8" style="edgeStyle=orthogonalEdgeStyle;rounded=0;orthogonalLoop=1;jettySize=auto;html=1;entryX=0.5;entryY=0;entryDx=0;entryDy=0;" edge="1" parent="1" source="JPIbogad7ncxx7DGBU5N-1" target="JPIbogad7ncxx7DGBU5N-3">
          <mxGeometry relative="1" as="geometry" />
        </mxCell>
        <mxCell id="JPIbogad7ncxx7DGBU5N-9" style="edgeStyle=orthogonalEdgeStyle;rounded=0;orthogonalLoop=1;jettySize=auto;html=1;entryX=1;entryY=0.5;entryDx=0;entryDy=0;" edge="1" parent="1" source="JPIbogad7ncxx7DGBU5N-1" target="JPIbogad7ncxx7DGBU5N-5">
          <mxGeometry relative="1" as="geometry" />
        </mxCell>
        <mxCell id="JPIbogad7ncxx7DGBU5N-1" value="&lt;font style=&quot;font-size: 18px;&quot;&gt;FearOfDark&lt;/font&gt;" style="rounded=0;whiteSpace=wrap;html=1;fillColor=#FF9999;" vertex="1" parent="1">
          <mxGeometry x="350" y="310" width="120" height="60" as="geometry" />
        </mxCell>
        <mxCell id="JPIbogad7ncxx7DGBU5N-2" value="&lt;font style=&quot;font-size: 18px;&quot;&gt;Flashlight&lt;/font&gt;" style="rounded=0;whiteSpace=wrap;html=1;" vertex="1" parent="1">
          <mxGeometry x="350" y="200" width="120" height="60" as="geometry" />
        </mxCell>
        <mxCell id="JPIbogad7ncxx7DGBU5N-3" value="&lt;font style=&quot;font-size: 18px;&quot;&gt;CaveEntry&lt;/font&gt;" style="rounded=0;whiteSpace=wrap;html=1;" vertex="1" parent="1">
          <mxGeometry x="350" y="420" width="120" height="60" as="geometry" />
        </mxCell>
        <mxCell id="JPIbogad7ncxx7DGBU5N-4" value="&lt;font style=&quot;font-size: 18px;&quot;&gt;CaveExit&lt;/font&gt;" style="rounded=0;whiteSpace=wrap;html=1;" vertex="1" parent="1">
          <mxGeometry x="530" y="310" width="120" height="60" as="geometry" />
        </mxCell>
        <mxCell id="JPIbogad7ncxx7DGBU5N-5" value="&lt;font style=&quot;font-size: 18px;&quot;&gt;CaveHand&lt;/font&gt;" style="rounded=0;whiteSpace=wrap;html=1;" vertex="1" parent="1">
          <mxGeometry x="170" y="310" width="120" height="60" as="geometry" />
        </mxCell>
      </root>
    </mxGraphModel>
  </diagram>
</mxfile>
